<svg width="171" height="57" viewBox="0 0 171 57" fill="none" xmlns="http://www.w3.org/2000/svg">
<path d="M39.4149 27.868L43.6565 23.6265L29.9565 15.9266C29.0485 15.436 28.1979 15.3672 27.452 15.9037L39.4149 27.868ZM44.3794 32.8339L48.7887 30.3538C49.6494 29.8719 50.1213 29.1891 50.1213 28.4317C50.1213 27.6758 49.6494 26.9916 48.7902 26.5096L44.7982 24.2677L40.3043 28.7602L44.3794 32.8339V32.8339ZM26.7147 16.9465C26.6229 17.2291 26.5713 17.5446 26.5713 17.8903V38.9832C26.5713 39.5297 26.6918 40.0002 26.9098 40.3746L38.5242 28.7588L26.7147 16.9465ZM39.4149 29.6481L27.8651 41.1993C28.086 41.284 28.3241 41.3284 28.5751 41.3284C29.0227 41.3284 29.4889 41.1965 29.9636 40.9325L43.239 33.478L39.4149 29.6481V29.6481Z" fill="#535353"/>
<path d="M72.3739 23.9209C72.905 23.9209 73.4008 24.0212 73.8611 24.2219C74.3214 24.4107 74.7227 24.6763 75.065 25.0186C75.4191 25.3491 75.6906 25.7445 75.8794 26.2048C76.0801 26.6533 76.1804 27.1314 76.1804 27.6389C76.1804 28.1464 76.0801 28.6303 75.8794 29.0907C75.6906 29.5392 75.4191 29.9346 75.065 30.2769C74.7227 30.6074 74.3214 30.8729 73.8611 31.0736C73.4008 31.2624 72.905 31.3569 72.3739 31.3569H70.3379V35.0748H68.2133V23.9209H72.3739ZM72.3739 29.3208C72.5981 29.3208 72.8106 29.2736 73.0113 29.1792C73.2119 29.0848 73.389 28.9608 73.5424 28.8074C73.6958 28.654 73.8198 28.4769 73.9142 28.2763C74.0086 28.0756 74.0558 27.8631 74.0558 27.6389C74.0558 27.4146 74.0086 27.2022 73.9142 27.0015C73.8198 26.8009 73.6958 26.6238 73.5424 26.4704C73.389 26.3169 73.2119 26.193 73.0113 26.0986C72.8106 26.0042 72.5981 25.9569 72.3739 25.9569H70.3379V29.3208H72.3739ZM79.7199 35.0748H77.6839V23.9209H79.7199V35.0748ZM85.0244 26.8422C85.4847 26.8422 85.9096 26.9248 86.2991 27.09C86.6886 27.2435 87.025 27.4618 87.3083 27.7451C87.5916 28.0284 87.8099 28.3648 87.9634 28.7543C88.1286 29.1438 88.2112 29.5687 88.2112 30.029V35.0748H86.7063L86.3522 34.2781C86.1634 34.4434 85.9568 34.5909 85.7326 34.7207C85.5319 34.8388 85.29 34.945 85.0067 35.0394C84.7234 35.122 84.4047 35.1634 84.0506 35.1634C83.1654 35.1634 82.4867 34.9509 82.0146 34.526C81.5425 34.0893 81.3064 33.5345 81.3064 32.8618C81.3064 32.4604 81.3831 32.0946 81.5366 31.7641C81.7018 31.4218 81.9733 31.1326 82.351 30.8965C82.7287 30.6487 83.2244 30.4598 83.8382 30.33C84.4637 30.1884 85.2427 30.1175 86.1752 30.1175C86.1752 29.669 86.0513 29.3208 85.8034 29.073C85.5673 28.8251 85.2486 28.7012 84.8473 28.7012C84.5759 28.7012 84.3575 28.7484 84.1923 28.8428C84.0388 28.9372 83.9149 29.0376 83.8205 29.1438C83.7142 29.2736 83.6434 29.4212 83.608 29.5864H81.572C81.6192 29.2087 81.7254 28.8546 81.8907 28.5241C82.0677 28.1936 82.3038 27.9045 82.5989 27.6566C82.8939 27.4087 83.2421 27.214 83.6434 27.0723C84.0565 26.9189 84.5169 26.8422 85.0244 26.8422ZM84.4047 33.5699C84.9359 33.5699 85.3608 33.4165 85.6795 33.1096C86.0099 32.7909 86.1752 32.3837 86.1752 31.888V31.5339C85.5732 31.5339 85.0893 31.5634 84.7234 31.6224C84.3575 31.6696 84.0683 31.7464 83.8559 31.8526C83.6552 31.947 83.5195 32.065 83.4487 32.2067C83.3779 32.3483 83.3425 32.5077 83.3425 32.6847C83.3425 32.909 83.4428 33.1155 83.6434 33.3044C83.8441 33.4814 84.0978 33.5699 84.4047 33.5699ZM89.1781 26.9307H91.3026L93.3386 32.2421L95.1976 26.9307H97.3222C96.7438 28.4179 96.2186 29.7634 95.7465 30.9674C95.5458 31.4867 95.3452 31.9942 95.1445 32.49C94.9557 32.9857 94.7845 33.4401 94.6311 33.8532C94.4776 34.2545 94.3478 34.5909 94.2416 34.8624C94.1354 35.1338 94.0704 35.2932 94.0468 35.3404C93.8462 35.8243 93.6455 36.2315 93.4449 36.562C93.256 36.9043 93.0495 37.1817 92.8252 37.3941C92.601 37.6066 92.359 37.76 92.0993 37.8545C91.8397 37.9489 91.5446 37.9961 91.2141 37.9961C91.1197 37.9961 91.0252 37.9902 90.9308 37.9784C90.8482 37.9784 90.7774 37.9725 90.7184 37.9607C90.6357 37.9489 90.5649 37.9312 90.5059 37.9076V36.2256C90.9544 36.2256 91.2967 36.1253 91.5328 35.9247C91.7806 35.724 91.9695 35.4702 92.0993 35.1634L92.2764 34.7207L89.1781 26.9307ZM103.861 32.5077C103.908 32.7791 104.038 33.0093 104.251 33.1981C104.463 33.387 104.746 33.4814 105.1 33.4814C105.455 33.4814 105.732 33.3929 105.933 33.2158C106.145 33.027 106.251 32.8204 106.251 32.5962C106.251 32.4073 106.145 32.2598 105.933 32.1536C105.732 32.0473 105.478 31.9529 105.171 31.8703C104.864 31.7759 104.528 31.6814 104.162 31.587C103.808 31.4926 103.478 31.3569 103.171 31.1798C102.864 30.991 102.604 30.7549 102.392 30.4716C102.191 30.1766 102.091 29.793 102.091 29.3208C102.091 28.9903 102.156 28.6776 102.285 28.3825C102.427 28.0756 102.628 27.81 102.887 27.5858C103.147 27.3615 103.454 27.1845 103.808 27.0546C104.162 26.913 104.563 26.8422 105.012 26.8422C105.992 26.8422 106.741 27.0782 107.26 27.5504C107.792 28.0225 108.104 28.6126 108.199 29.3208H106.251C106.204 29.1438 106.074 28.9667 105.862 28.7897C105.661 28.6126 105.407 28.5241 105.1 28.5241C104.794 28.5241 104.552 28.6008 104.375 28.7543C104.209 28.9077 104.127 29.0966 104.127 29.3208C104.127 29.5097 104.227 29.6572 104.428 29.7634C104.64 29.8697 104.9 29.97 105.207 30.0644C105.514 30.147 105.844 30.2415 106.198 30.3477C106.564 30.4421 106.9 30.5838 107.207 30.7726C107.514 30.9615 107.768 31.2093 107.969 31.5162C108.181 31.8113 108.287 32.2008 108.287 32.6847C108.287 33.0152 108.216 33.3339 108.075 33.6408C107.933 33.9358 107.733 34.1955 107.473 34.4198C107.213 34.644 106.895 34.827 106.517 34.9686C106.151 35.0984 105.738 35.1634 105.278 35.1634C104.215 35.1634 103.407 34.9214 102.852 34.4375C102.309 33.9535 101.996 33.3103 101.914 32.5077H103.861ZM110.676 24.9832H112.446V26.9307H114.217V28.7897H112.446V32.1536C112.446 32.5077 112.547 32.7909 112.747 33.0034C112.96 33.204 113.243 33.3044 113.597 33.3044C113.692 33.3044 113.768 33.3044 113.827 33.3044C113.886 33.2926 113.94 33.2808 113.987 33.269C114.034 33.2572 114.081 33.2395 114.128 33.2158V34.9863C114.046 35.0217 113.951 35.0512 113.845 35.0748C113.645 35.1338 113.414 35.1634 113.155 35.1634C112.753 35.1634 112.382 35.0984 112.039 34.9686C111.709 34.827 111.42 34.6263 111.172 34.3666C110.936 34.107 110.747 33.8001 110.605 33.446C110.475 33.0919 110.41 32.6906 110.41 32.2421V28.7897H109.171V27.1077H109.702C110.351 27.1077 110.676 26.7832 110.676 26.134V24.9832ZM117.315 31.0028C117.315 31.6755 117.509 32.2126 117.899 32.6139C118.288 33.0152 118.772 33.2158 119.351 33.2158C119.929 33.2158 120.413 33.0152 120.802 32.6139C121.192 32.2126 121.387 31.6755 121.387 31.0028C121.387 30.33 121.192 29.793 120.802 29.3916C120.413 28.9903 119.929 28.7897 119.351 28.7897C118.772 28.7897 118.288 28.9903 117.899 29.3916C117.509 29.793 117.315 30.33 117.315 31.0028ZM123.423 31.0028C123.423 31.5811 123.311 32.1241 123.086 32.6316C122.874 33.1273 122.579 33.564 122.201 33.9417C121.835 34.3194 121.404 34.6204 120.909 34.8447C120.425 35.0571 119.905 35.1634 119.351 35.1634C118.796 35.1634 118.271 35.0571 117.775 34.8447C117.291 34.6204 116.86 34.3194 116.482 33.9417C116.117 33.564 115.821 33.1273 115.597 32.6316C115.385 32.1241 115.279 31.5811 115.279 31.0028C115.279 30.4244 115.385 29.8874 115.597 29.3916C115.821 28.8841 116.117 28.4415 116.482 28.0638C116.86 27.6861 117.291 27.391 117.775 27.1786C118.271 26.9543 118.796 26.8422 119.351 26.8422C119.905 26.8422 120.425 26.9543 120.909 27.1786C121.404 27.391 121.835 27.6861 122.201 28.0638C122.579 28.4415 122.874 28.8841 123.086 29.3916C123.311 29.8874 123.423 30.4244 123.423 31.0028ZM128.726 26.8422C128.82 26.8422 128.903 26.8481 128.974 26.8599C129.044 26.8717 129.109 26.8835 129.168 26.8953C129.227 26.9071 129.286 26.9189 129.345 26.9307V29.0553C129.286 29.0435 129.221 29.0317 129.151 29.0198C129.092 29.008 129.015 28.9962 128.921 28.9844C128.838 28.9726 128.743 28.9667 128.637 28.9667C128.142 28.9667 127.734 29.132 127.416 29.4625C127.109 29.7811 126.955 30.2061 126.955 30.7372V35.0748H124.919V26.9307H126.424L126.778 27.8159C126.92 27.6389 127.091 27.4795 127.292 27.3379C127.457 27.2081 127.658 27.0959 127.894 27.0015C128.142 26.8953 128.419 26.8422 128.726 26.8422ZM137.849 32.5962C137.743 32.9031 137.578 33.2099 137.353 33.5168C137.141 33.8237 136.875 34.1011 136.557 34.3489C136.25 34.585 135.896 34.7798 135.494 34.9332C135.105 35.0866 134.68 35.1634 134.22 35.1634C133.665 35.1634 133.14 35.0571 132.644 34.8447C132.16 34.6204 131.729 34.3194 131.352 33.9417C130.986 33.564 130.691 33.1273 130.466 32.6316C130.254 32.1241 130.148 31.5811 130.148 31.0028C130.148 30.4244 130.254 29.8874 130.466 29.3916C130.691 28.8841 130.986 28.4415 131.352 28.0638C131.729 27.6861 132.16 27.391 132.644 27.1786C133.14 26.9543 133.665 26.8422 134.22 26.8422C134.751 26.8422 135.252 26.9425 135.725 27.1432C136.197 27.3438 136.61 27.6271 136.964 27.993C137.318 28.3589 137.595 28.8015 137.796 29.3208C138.009 29.8284 138.115 30.389 138.115 31.0028C138.115 31.0972 138.109 31.1916 138.097 31.286C138.085 31.3687 138.073 31.4513 138.062 31.5339C138.05 31.6283 138.038 31.7169 138.026 31.7995H132.361C132.455 32.2008 132.656 32.5372 132.963 32.8086C133.27 33.0801 133.689 33.2158 134.22 33.2158C134.491 33.2158 134.715 33.1863 134.892 33.1273C135.081 33.0683 135.241 32.9975 135.371 32.9149C135.512 32.8204 135.63 32.7142 135.725 32.5962H137.849ZM134.22 28.7897C133.689 28.7897 133.252 28.9431 132.91 29.25C132.579 29.5569 132.367 29.9346 132.272 30.3831H136.167C136.073 29.9346 135.854 29.5569 135.512 29.25C135.182 28.9431 134.751 28.7897 134.22 28.7897Z" fill="#535353"/>
<rect x="1.33398" y="0.886597" width="168.834" height="55.0646" rx="27.5323" stroke="#E7E7E7"/>
</svg>
