<svg width="170" height="57" viewBox="0 0 170 57" fill="none" xmlns="http://www.w3.org/2000/svg">
<path d="M45.1263 29.1832C45.1129 26.8904 46.1517 25.1624 48.2495 23.8883C47.0762 22.2073 45.3011 21.2828 42.9613 21.1046C40.7458 20.9298 38.3219 22.3956 37.4343 22.3956C36.4964 22.3956 34.3515 21.1652 32.6638 21.1652C29.1809 21.219 25.4795 23.9421 25.4795 29.4825C25.4795 31.1197 25.7787 32.8107 26.3771 34.5522C27.1772 36.845 30.0617 42.4627 33.0706 42.3719C34.644 42.3349 35.7568 41.2558 37.8041 41.2558C39.791 41.2558 40.8198 42.3719 42.5747 42.3719C45.6104 42.3282 48.2192 37.2215 48.979 34.922C44.9078 33.0023 45.1263 29.3009 45.1263 29.1832V29.1832ZM41.593 18.9295C43.2975 16.9057 43.1428 15.0634 43.0924 14.4011C41.5863 14.4885 39.8448 15.4264 38.8531 16.5796C37.7604 17.8167 37.1183 19.3464 37.2562 21.071C38.8833 21.1954 40.3693 20.3583 41.593 18.9295V18.9295Z" fill="#535353"/>
<path d="M68.3531 35.0425H66.14L70.3006 23.8886H72.2481L76.4087 35.0425H74.1956L73.3989 32.7409H69.1498L68.3531 35.0425ZM72.6907 30.7934L71.2743 26.7214L69.858 30.7934H72.6907ZM81.46 26.8099C81.9676 26.8099 82.4515 26.9161 82.9118 27.1286C83.3721 27.3292 83.7734 27.6184 84.1157 27.9961C84.4698 28.362 84.7472 28.7987 84.9478 29.3062C85.1603 29.8138 85.2665 30.3685 85.2665 30.9705C85.2665 31.5724 85.1603 32.1272 84.9478 32.6347C84.7472 33.1422 84.4698 33.5849 84.1157 33.9626C83.7734 34.3285 83.3721 34.6176 82.9118 34.8301C82.4515 35.0307 81.9676 35.1311 81.46 35.1311C81.1177 35.1311 80.8168 35.0898 80.5571 35.0071C80.3092 34.9245 80.0909 34.836 79.902 34.7416C79.6896 34.6235 79.5007 34.4878 79.3355 34.3344V37.8753H77.2994V26.8984H78.8043L79.1584 27.6951C79.3355 27.5299 79.542 27.3823 79.7781 27.2525C79.9787 27.1463 80.2207 27.046 80.504 26.9515C80.7872 26.8571 81.1059 26.8099 81.46 26.8099ZM79.1584 30.9705C79.1584 31.6433 79.3532 32.1803 79.7427 32.5816C80.1322 32.9829 80.6161 33.1836 81.1945 33.1836C81.7728 33.1836 82.2567 32.9829 82.6462 32.5816C83.0357 32.1803 83.2305 31.6433 83.2305 30.9705C83.2305 30.2977 83.0357 29.7607 82.6462 29.3594C82.2567 28.9581 81.7728 28.7574 81.1945 28.7574C80.6161 28.7574 80.1322 28.9581 79.7427 29.3594C79.3532 29.7607 79.1584 30.2977 79.1584 30.9705ZM90.9348 26.8099C91.4423 26.8099 91.9262 26.9161 92.3865 27.1286C92.8469 27.3292 93.2482 27.6184 93.5905 27.9961C93.9445 28.362 94.2219 28.7987 94.4226 29.3062C94.635 29.8138 94.7413 30.3685 94.7413 30.9705C94.7413 31.5724 94.635 32.1272 94.4226 32.6347C94.2219 33.1422 93.9445 33.5849 93.5905 33.9626C93.2482 34.3285 92.8469 34.6176 92.3865 34.8301C91.9262 35.0307 91.4423 35.1311 90.9348 35.1311C90.5925 35.1311 90.2915 35.0898 90.0318 35.0071C89.784 34.9245 89.5656 34.836 89.3768 34.7416C89.1643 34.6235 88.9754 34.4878 88.8102 34.3344V37.8753H86.7742V26.8984H88.2791L88.6332 27.6951C88.8102 27.5299 89.0168 27.3823 89.2528 27.2525C89.4535 27.1463 89.6954 27.046 89.9787 26.9515C90.262 26.8571 90.5807 26.8099 90.9348 26.8099ZM88.6332 30.9705C88.6332 31.6433 88.8279 32.1803 89.2174 32.5816C89.6069 32.9829 90.0908 33.1836 90.6692 33.1836C91.2475 33.1836 91.7315 32.9829 92.121 32.5816C92.5105 32.1803 92.7052 31.6433 92.7052 30.9705C92.7052 30.2977 92.5105 29.7607 92.121 29.3594C91.7315 28.9581 91.2475 28.7574 90.6692 28.7574C90.0908 28.7574 89.6069 28.9581 89.2174 29.3594C88.8279 29.7607 88.6332 30.2977 88.6332 30.9705ZM98.2849 35.0425H96.2489V23.8886H98.2849V35.0425ZM107.484 32.5639C107.378 32.8708 107.213 33.1777 106.989 33.4845C106.776 33.7914 106.511 34.0688 106.192 34.3167C105.885 34.5527 105.531 34.7475 105.13 34.9009C104.74 35.0543 104.315 35.1311 103.855 35.1311C103.3 35.1311 102.775 35.0248 102.279 34.8124C101.795 34.5881 101.365 34.2871 100.987 33.9094C100.621 33.5317 100.326 33.095 100.102 32.5993C99.8891 32.0918 99.7829 31.5488 99.7829 30.9705C99.7829 30.3921 99.8891 29.8551 100.102 29.3594C100.326 28.8518 100.621 28.4092 100.987 28.0315C101.365 27.6538 101.795 27.3587 102.279 27.1463C102.775 26.922 103.3 26.8099 103.855 26.8099C104.386 26.8099 104.888 26.9102 105.36 27.1109C105.832 27.3115 106.245 27.5948 106.599 27.9607C106.953 28.3266 107.231 28.7692 107.431 29.2885C107.644 29.7961 107.75 30.3567 107.75 30.9705C107.75 31.0649 107.744 31.1593 107.732 31.2538C107.72 31.3364 107.709 31.419 107.697 31.5016C107.685 31.596 107.673 31.6846 107.661 31.7672H101.996C102.09 32.1685 102.291 32.5049 102.598 32.7763C102.905 33.0478 103.324 33.1836 103.855 33.1836C104.126 33.1836 104.351 33.154 104.528 33.095C104.717 33.036 104.876 32.9652 105.006 32.8826C105.147 32.7882 105.265 32.6819 105.36 32.5639H107.484ZM103.855 28.7574C103.324 28.7574 102.887 28.9108 102.545 29.2177C102.214 29.5246 102.002 29.9023 101.907 30.3508H105.802C105.708 29.9023 105.49 29.5246 105.147 29.2177C104.817 28.9108 104.386 28.7574 103.855 28.7574ZM114.732 32.4754C114.779 32.7468 114.909 32.977 115.122 33.1659C115.334 33.3547 115.617 33.4491 115.972 33.4491C116.326 33.4491 116.603 33.3606 116.804 33.1836C117.016 32.9947 117.122 32.7882 117.122 32.5639C117.122 32.375 117.016 32.2275 116.804 32.1213C116.603 32.0151 116.349 31.9206 116.042 31.838C115.736 31.7436 115.399 31.6492 115.033 31.5547C114.679 31.4603 114.349 31.3246 114.042 31.1475C113.735 30.9587 113.475 30.7226 113.263 30.4393C113.062 30.1443 112.962 29.7607 112.962 29.2885C112.962 28.9581 113.027 28.6453 113.157 28.3502C113.298 28.0433 113.499 27.7777 113.759 27.5535C114.018 27.3292 114.325 27.1522 114.679 27.0223C115.033 26.8807 115.435 26.8099 115.883 26.8099C116.863 26.8099 117.612 27.046 118.132 27.5181C118.663 27.9902 118.975 28.5804 119.07 29.2885H117.122C117.075 29.1115 116.945 28.9344 116.733 28.7574C116.532 28.5804 116.278 28.4918 115.972 28.4918C115.665 28.4918 115.423 28.5686 115.246 28.722C115.08 28.8754 114.998 29.0643 114.998 29.2885C114.998 29.4774 115.098 29.6249 115.299 29.7312C115.511 29.8374 115.771 29.9377 116.078 30.0321C116.385 30.1148 116.715 30.2092 117.069 30.3154C117.435 30.4098 117.772 30.5515 118.078 30.7403C118.385 30.9292 118.639 31.177 118.84 31.4839C119.052 31.779 119.158 32.1685 119.158 32.6524C119.158 32.9829 119.088 33.3016 118.946 33.6085C118.804 33.9035 118.604 34.1632 118.344 34.3875C118.084 34.6117 117.766 34.7947 117.388 34.9363C117.022 35.0661 116.609 35.1311 116.149 35.1311C115.086 35.1311 114.278 34.8891 113.723 34.4052C113.18 33.9212 112.867 33.278 112.785 32.4754H114.732ZM121.547 24.9509H123.318V26.8984H125.088V28.7574H123.318V32.1213C123.318 32.4754 123.418 32.7586 123.619 32.9711C123.831 33.1718 124.114 33.2721 124.468 33.2721C124.563 33.2721 124.64 33.2721 124.699 33.2721C124.758 33.2603 124.811 33.2485 124.858 33.2367C124.905 33.2249 124.952 33.2072 125 33.1836V34.954C124.917 34.9894 124.823 35.0189 124.716 35.0425C124.516 35.1016 124.285 35.1311 124.026 35.1311C123.624 35.1311 123.253 35.0661 122.91 34.9363C122.58 34.7947 122.291 34.594 122.043 34.3344C121.807 34.0747 121.618 33.7678 121.476 33.4137C121.347 33.0596 121.282 32.6583 121.282 32.2098V28.7574H120.042V27.0755H120.573C121.223 27.0755 121.547 26.7509 121.547 26.1017V24.9509ZM128.186 30.9705C128.186 31.6433 128.38 32.1803 128.77 32.5816C129.159 32.9829 129.643 33.1836 130.222 33.1836C130.8 33.1836 131.284 32.9829 131.674 32.5816C132.063 32.1803 132.258 31.6433 132.258 30.9705C132.258 30.2977 132.063 29.7607 131.674 29.3594C131.284 28.9581 130.8 28.7574 130.222 28.7574C129.643 28.7574 129.159 28.9581 128.77 29.3594C128.38 29.7607 128.186 30.2977 128.186 30.9705ZM134.294 30.9705C134.294 31.5488 134.182 32.0918 133.957 32.5993C133.745 33.095 133.45 33.5317 133.072 33.9094C132.706 34.2871 132.275 34.5881 131.78 34.8124C131.296 35.0248 130.776 35.1311 130.222 35.1311C129.667 35.1311 129.142 35.0248 128.646 34.8124C128.162 34.5881 127.731 34.2871 127.354 33.9094C126.988 33.5317 126.693 33.095 126.468 32.5993C126.256 32.0918 126.15 31.5488 126.15 30.9705C126.15 30.3921 126.256 29.8551 126.468 29.3594C126.693 28.8518 126.988 28.4092 127.354 28.0315C127.731 27.6538 128.162 27.3587 128.646 27.1463C129.142 26.922 129.667 26.8099 130.222 26.8099C130.776 26.8099 131.296 26.922 131.78 27.1463C132.275 27.3587 132.706 27.6538 133.072 28.0315C133.45 28.4092 133.745 28.8518 133.957 29.3594C134.182 29.8551 134.294 30.3921 134.294 30.9705ZM139.597 26.8099C139.691 26.8099 139.774 26.8158 139.845 26.8276C139.916 26.8394 139.98 26.8512 140.039 26.863C140.099 26.8748 140.158 26.8866 140.217 26.8984V29.023C140.158 29.0112 140.093 28.9994 140.022 28.9876C139.963 28.9758 139.886 28.964 139.792 28.9522C139.709 28.9403 139.615 28.9344 139.508 28.9344C139.013 28.9344 138.605 29.0997 138.287 29.4302C137.98 29.7489 137.826 30.1738 137.826 30.7049V35.0425H135.79V26.8984H137.295L137.649 27.7836C137.791 27.6066 137.962 27.4473 138.163 27.3056C138.328 27.1758 138.529 27.0637 138.765 26.9692C139.013 26.863 139.29 26.8099 139.597 26.8099ZM148.72 32.5639C148.614 32.8708 148.449 33.1777 148.225 33.4845C148.012 33.7914 147.747 34.0688 147.428 34.3167C147.121 34.5527 146.767 34.7475 146.366 34.9009C145.976 35.0543 145.551 35.1311 145.091 35.1311C144.536 35.1311 144.011 35.0248 143.515 34.8124C143.031 34.5881 142.6 34.2871 142.223 33.9094C141.857 33.5317 141.562 33.095 141.337 32.5993C141.125 32.0918 141.019 31.5488 141.019 30.9705C141.019 30.3921 141.125 29.8551 141.337 29.3594C141.562 28.8518 141.857 28.4092 142.223 28.0315C142.6 27.6538 143.031 27.3587 143.515 27.1463C144.011 26.922 144.536 26.8099 145.091 26.8099C145.622 26.8099 146.124 26.9102 146.596 27.1109C147.068 27.3115 147.481 27.5948 147.835 27.9607C148.189 28.3266 148.467 28.7692 148.667 29.2885C148.88 29.7961 148.986 30.3567 148.986 30.9705C148.986 31.0649 148.98 31.1593 148.968 31.2538C148.956 31.3364 148.945 31.419 148.933 31.5016C148.921 31.596 148.909 31.6846 148.897 31.7672H143.232C143.326 32.1685 143.527 32.5049 143.834 32.7763C144.141 33.0478 144.56 33.1836 145.091 33.1836C145.362 33.1836 145.587 33.154 145.764 33.095C145.952 33.036 146.112 32.9652 146.242 32.8826C146.383 32.7882 146.501 32.6819 146.596 32.5639H148.72ZM145.091 28.7574C144.56 28.7574 144.123 28.9108 143.781 29.2177C143.45 29.5246 143.238 29.9023 143.143 30.3508H147.038C146.944 29.9023 146.726 29.5246 146.383 29.2177C146.053 28.9108 145.622 28.7574 145.091 28.7574Z" fill="#535353"/>
<rect x="0.5" y="0.886597" width="168.834" height="55" rx="27.5" stroke="#E7E7E7"/>
</svg>
